<svg xmlns="http://www.w3.org/2000/svg" width="93" height="100" viewBox="0 0 93 100">
    <g fill="#001738" fill-rule="nonzero">
        <path d="M44.138 51.733c1.77 1.643 5.71 5.3-.003-.003-1.147-1.064-.793-.735-.002 0-3.708-3.443-7.796-6.06-11.51-7.368-4.185-1.475-7.536-1.14-9.436.943-1.9 2.082-1.952 5.48-.148 9.564 1.602 3.626 4.526 7.519 8.235 10.962 3.71 3.442 7.797 6.06 11.512 7.368.236.084.469.16.7.231L4.318 95.336l15.224-34.35a1.737 1.737 0 0 0-.866-2.286 1.71 1.71 0 0 0-2.266.874L.239 96.064c-.95 2.126 1.698 4.562 3.705 3.439L50.2 73.633c.823-.401 1.417-.77 2.023-1.377 3.844-3.845.19-12.841-8.084-20.523zm5.559 18.18c-1.161 1.504-4.3.541-5.78.02-3.283-1.158-6.948-3.519-10.32-6.649s-6.009-6.619-7.424-9.823c-1.177-2.666-1.35-4.839-.461-5.813.447-.49 1.216-.735 2.219-.735.989 0 2.205.239 3.56.717 3.283 1.156 6.948 3.517 10.32 6.648 7.431 6.897 9.442 13.62 7.886 15.636zM37.762 41.156c-1.105-.95.497.428 0 0z"/>
        <path d="M46.38 6.204a1.74 1.74 0 0 0 .383-2.417 1.706 1.706 0 0 0-2.396-.386c-4.222 3.087-6.327 6.274-6.256 9.47.05 2.317 1.17 3.732 2.253 5.101.934 1.18 1.9 2.401 2.373 4.494.724 3.204-.214 6.05-1.042 8.56a22.532 22.532 0 0 1-4.257 7.572 1.741 1.741 0 0 0 .185 2.44c.71.614 1.81.529 2.419-.187a25.987 25.987 0 0 0 4.909-8.733c.872-2.648 2.068-6.274 1.13-10.422-.647-2.863-1.971-4.537-3.036-5.882-.972-1.23-1.48-1.922-1.505-3.02-.055-2.482 2.602-4.954 4.84-6.59zM61.78 13.78h-.003c-.946 0-1.714.773-1.715 1.727a20.82 20.82 0 0 1-1.67 8.2c-2.117 4.951-5.657 7.93-8.255 9.558a1.74 1.74 0 0 0-.552 2.384c.325.527.886.817 1.46.817.308 0 .621-.084.903-.26 3.014-1.89 7.125-5.353 9.595-11.128a24.283 24.283 0 0 0 1.95-9.565 1.723 1.723 0 0 0-1.713-1.733zM85.773 22.761a1.708 1.708 0 0 0-2.335.665c-2.34 4.222-5.318 7.168-8.85 8.756-2.506 1.126-4.584 1.27-6.784 1.42-2.37.163-4.82.33-7.554 1.796-4.337 2.322-7.504 6.978-9.411 13.837-.243.874.248 1.815 1.1 2.106.92.314 1.94-.229 2.203-1.171 1.644-5.913 4.24-9.854 7.716-11.716 2.089-1.119 3.984-1.248 6.178-1.399 2.29-.157 4.886-.335 7.948-1.712 4.223-1.899 7.738-5.34 10.448-10.227a1.739 1.739 0 0 0-.659-2.355zM86.634 54.996a1.706 1.706 0 0 0-2.362-.558c-2.73 1.708-5.225 2.33-7.414 1.848-1.37-.302-2.2-.935-3.251-1.737-.83-.634-1.77-1.351-3.051-1.926-3.864-1.733-8.77-1.194-14.583 1.601a1.737 1.737 0 0 0-.81 2.307 1.71 1.71 0 0 0 2.287.818c4.866-2.341 8.807-2.867 11.711-1.564.92.413 1.627.953 2.376 1.524 1.163.888 2.482 1.894 4.59 2.358.726.16 1.466.24 2.22.24 2.453 0 5.045-.846 7.734-2.528a1.739 1.739 0 0 0 .553-2.383zM90.653 38.5a1.717 1.717 0 0 0-1.937-1.462c.205-.03.307-.045-.009 0-1.167.173-.434.065-.022.005a17.273 17.273 0 0 0-5.151 1.616 17.658 17.658 0 0 0-5.884 4.765c-.544.68-.49 1.694.123 2.311.712.715 1.917.65 2.547-.138a14.195 14.195 0 0 1 4.73-3.834 13.859 13.859 0 0 1 4.154-1.3 1.728 1.728 0 0 0 1.449-1.963zM68.713 43.5a1.936 1.936 0 0 0-1.925 1.942c0 1.07.863 1.942 1.925 1.942a1.935 1.935 0 0 0 1.925-1.942c0-1.07-.864-1.942-1.925-1.942zM72.754 18.495a1.935 1.935 0 0 0-1.924 1.942c0 1.07.863 1.942 1.924 1.942a1.935 1.935 0 0 0 1.925-1.942c0-1.07-.863-1.942-1.925-1.942zM58.22 0a1.935 1.935 0 0 0-1.924 1.942c0 1.07.863 1.941 1.925 1.941a1.935 1.935 0 0 0 1.924-1.941C60.145.87 59.282 0 58.221 0zM90.063 12.29a1.935 1.935 0 0 0-1.925 1.941c0 1.071.864 1.942 1.925 1.942a1.935 1.935 0 0 0 1.925-1.942c0-1.07-.864-1.941-1.925-1.941zM78.242 3.653a1.935 1.935 0 0 0-1.924 1.941c0 1.071.863 1.942 1.924 1.942a1.935 1.935 0 0 0 1.925-1.942c0-1.07-.863-1.941-1.925-1.941zM51.043 10.463a1.935 1.935 0 0 0-1.925 1.942c0 1.07.863 1.942 1.925 1.942a1.935 1.935 0 0 0 1.924-1.942c0-1.07-.863-1.942-1.924-1.942zM90.766 47.084a1.935 1.935 0 0 0-1.925 1.942c0 1.07.864 1.942 1.925 1.942a1.935 1.935 0 0 0 1.925-1.942c0-1.07-.863-1.942-1.925-1.942zM34.319 25.547a1.935 1.935 0 0 0-1.925 1.942c0 1.07.863 1.942 1.925 1.942a1.935 1.935 0 0 0 1.924-1.942c0-1.07-.863-1.942-1.924-1.942zM27.711 67.957c-2.94 0-5.333 2.414-5.333 5.38 0 2.967 2.392 5.381 5.333 5.381 2.941 0 5.334-2.414 5.334-5.38 0-2.967-2.393-5.381-5.334-5.381zm0 7.3a1.914 1.914 0 0 1-1.903-1.92c0-1.058.854-1.92 1.903-1.92 1.05 0 1.903.862 1.903 1.92 0 1.06-.853 1.92-1.903 1.92zM18.951 79.74a5.326 5.326 0 0 0-2.79-3.006 1.708 1.708 0 0 0-2.27.862 1.737 1.737 0 0 0 .854 2.29c.462.213.816.593.995 1.073.18.48.162 1.002-.048 1.469a1.899 1.899 0 0 1-2.518.956 1.71 1.71 0 0 0-2.27.862 1.737 1.737 0 0 0 .853 2.29c.713.326 1.459.48 2.194.48a5.34 5.34 0 0 0 4.866-3.16c.588-1.309.636-2.77.134-4.116z"/>
    </g>
</svg>
