<svg xmlns="http://www.w3.org/2000/svg" width="17" height="30" viewBox="0 0 17 30">
    <path fill="#FFF" fill-rule="evenodd" d="M15.491.006L11.636 0c-4.33 0-7.13 2.872-7.13 7.316v3.374H.63a.606.606 0 0 0-.606.606v4.888c0 .335.271.606.606.606h3.876v12.333c0 .335.271.606.606.606h5.058a.606.606 0 0 0 .606-.606V16.79h4.532a.606.606 0 0 0 .606-.606l.002-4.888a.607.607 0 0 0-.606-.606h-4.534V7.83c0-1.374.327-2.072 2.118-2.072l2.597-.001a.606.606 0 0 0 .606-.606V.612a.606.606 0 0 0-.606-.606z"/>
</svg>
