<svg xmlns="http://www.w3.org/2000/svg" width="31" height="20" viewBox="0 0 31 20">
    <g fill="#FFF" fill-rule="evenodd">
        <path d="M10.82 12.066h4.82c-.846 2.417-3.137 4.15-5.819 4.13-3.254-.025-5.945-2.656-6.071-5.942C3.615 6.73 6.41 3.82 9.867 3.82c1.58 0 3.022.608 4.11 1.606.257.236.649.237.902-.004l1.77-1.683a.674.674 0 0 0 .002-.972 9.777 9.777 0 0 0-6.588-2.73C4.623-.07.038 4.437 0 9.937c-.038 5.54 4.394 10.043 9.867 10.043 5.263 0 9.563-4.165 9.85-9.412.008-.065.013-2.289.013-2.289h-8.91c-.364 0-.66.3-.66.669v2.449c0 .369.296.668.66.668zM27.895 8.503V6.11a.583.583 0 0 0-.58-.586h-1.992c-.32 0-.58.263-.58.586v2.393h-2.367c-.32 0-.58.262-.58.585v2.014c0 .324.26.586.58.586h2.368v2.393c0 .323.259.585.579.585h1.992c.32 0 .58-.262.58-.585v-2.393h2.367c.32 0 .58-.262.58-.586V9.088a.583.583 0 0 0-.58-.585h-2.367z"/>
    </g>
</svg>
