<svg xmlns="http://www.w3.org/2000/svg" width="32" height="26" viewBox="0 0 32 26">
    <path fill="#FFF" fill-rule="evenodd" d="M31.933 3.069c-1.176.52-2.437.874-3.762 1.032a6.578 6.578 0 0 0 2.88-3.622c-1.27.75-2.67 1.295-4.163 1.59A6.532 6.532 0 0 0 22.108 0a6.55 6.55 0 0 0-6.382 8.042A18.598 18.598 0 0 1 2.225 1.197a6.501 6.501 0 0 0-.886 3.293A6.547 6.547 0 0 0 4.252 9.94a6.551 6.551 0 0 1-2.967-.822v.082a6.557 6.557 0 0 0 5.254 6.423 6.635 6.635 0 0 1-1.726.23c-.423 0-.832-.042-1.233-.122a6.554 6.554 0 0 0 6.118 4.55 13.143 13.143 0 0 1-8.136 2.8c-.528 0-1.05-.033-1.562-.09a18.517 18.517 0 0 0 10.041 2.947c12.05 0 18.637-9.982 18.637-18.638l-.022-.848a13.081 13.081 0 0 0 3.277-3.384z"/>
</svg>
